# xmcd
#
# Track frame offsets:
#	150
#	21610
#	37297
#	56180
#	88835
#	102585
#	119740
#	139565
#	159317
#	195912
#	218555
#	240652
#
# Disc length: 3750 seconds
#
# Revision: 1
# Processed by: cddbd v1.4PL0 Copyright (c) Steve Scherf et al.
# Submitted via: audiograbber 1.80.04
#
DISCID=b00ea40c
DTITLE=Junkyardmen - Scrapheap Full of Blues
DYEAR=1998
DGENRE=Blues
TTITLE0=Junkyardman
TTITLE1=Luck I Got
TTITLE2=Full Moon
TTITLE3=What Time Does the Bus Leave
TTITLE4=Tell It Like It Is
TTITLE5=Stingin' Stang
TTITLE6=Change
TTITLE7=Workin' for Peanuts
TTITLE8=Jammin' in the Jungle
TTITLE9=Same Old Blues
TTITLE10=What Is Your Life
TTITLE11=Washin' My Hands
EXTD=
EXTT0=
EXTT1=
EXTT2=
EXTT3=
EXTT4=
EXTT5=
EXTT6=
EXTT7=
EXTT8=
EXTT9=
EXTT10=
EXTT11=
PLAYORDER=
